<svg width="19" height="19" viewBox="0 0 19 19" fill="none" xmlns="http://www.w3.org/2000/svg">
<g clip-path="url(#clip0_1_2682)">
<path d="M18.7619 11.0558C18.7619 10.7426 18.5079 10.4886 18.1947 10.4886H17.0595V2.75501C17.0595 1.23589 15.8236 0 14.3045 0C12.7853 0 11.5494 1.23589 11.5494 2.75501V3.78902C11.5494 4.10226 11.8034 4.35624 12.1167 4.35624C12.4299 4.35624 12.6839 4.10226 12.6839 3.78902V2.75501C12.6839 1.86141 13.4109 1.13444 14.3045 1.13444C15.198 1.13444 15.925 1.86141 15.925 2.75501V10.4886H0.805255C0.492014 10.4886 0.238037 10.7426 0.238037 11.0558C0.238037 13.6158 1.85716 15.8044 4.12503 16.6522C3.68877 17.1108 3.41895 17.7397 3.41895 18.4328C3.41895 18.746 3.67293 19 3.98617 19C4.29941 19 4.55338 18.746 4.55338 18.4328C4.55338 17.6583 5.14435 17.0282 5.87081 17.0282C5.89749 17.0282 13.1025 17.0282 13.1292 17.0282C13.8556 17.0282 14.4467 17.6583 14.4467 18.4328C14.4467 18.746 14.7006 19 15.0139 19C15.3271 19 15.5811 18.746 15.5811 18.4328C15.5811 17.7397 15.3112 17.1108 14.875 16.6522C17.1428 15.8044 18.7619 13.6158 18.7619 11.0558ZM12.7896 15.8938H6.21043C3.73456 15.8938 1.68716 14.0245 1.40554 11.6231H17.5945C17.3128 14.0245 15.2654 15.8938 12.7896 15.8938Z" fill="#696969"/>
<path d="M12.1167 5.34033C11.8034 5.34033 11.5495 5.59431 11.5495 5.90755V6.39914C11.5495 6.71238 11.8034 6.96636 12.1167 6.96636C12.4299 6.96636 12.6839 6.71238 12.6839 6.39914V5.90755C12.6839 5.59427 12.4299 5.34033 12.1167 5.34033Z" fill="#696969"/>
<path d="M12.1165 8.06348C11.8033 8.06348 11.5493 8.31745 11.5493 8.63069V9.12228C11.5493 9.43552 11.8033 9.6895 12.1165 9.6895C12.4298 9.6895 12.6838 9.43552 12.6838 9.12228V8.63069C12.6837 8.31742 12.4298 8.06348 12.1165 8.06348Z" fill="#696969"/>
</g>
<defs>
<clipPath id="clip0_1_2682">
<rect width="19" height="19" fill="white"/>
</clipPath>
</defs>
</svg>
