<svg width="47" height="47" viewBox="0 0 47 47" fill="none" xmlns="http://www.w3.org/2000/svg">
<circle cx="23.5" cy="23.5" r="23.5" fill="#FFA155" fill-opacity="0.1"/>
<path d="M24 12C18.1845 12 13.4531 16.7313 13.4531 22.5469C13.4531 23.1914 13.4531 28.1769 13.4531 28.2656C13.4531 29.4287 14.3994 30.375 15.5625 30.375H16.3866C16.6768 31.1933 17.4584 31.7812 18.375 31.7812C19.5381 31.7812 20.4844 30.835 20.4844 29.6719V23.9531C20.4844 22.79 19.5381 21.8438 18.375 21.8438C17.4584 21.8438 16.6768 22.4317 16.3866 23.25H15.5625C15.316 23.25 15.0795 23.2929 14.8594 23.3709V22.5469C14.8594 17.5067 18.9599 13.4062 24 13.4062C29.0401 13.4062 33.1406 17.5067 33.1406 22.5469V23.3709C32.9205 23.2929 32.684 23.25 32.4375 23.25H31.6134C31.3232 22.4317 30.5416 21.8438 29.625 21.8438C28.4619 21.8438 27.5156 22.79 27.5156 23.9531V29.6719C27.5156 30.835 28.4619 31.7812 29.625 31.7812C29.8379 31.7812 30.0434 31.7493 30.2372 31.6904C29.9742 32.5558 29.169 33.1875 28.2188 33.1875H25.9884C25.6982 32.3692 24.9166 31.7812 24 31.7812C22.8369 31.7812 21.8906 32.7275 21.8906 33.8906C21.8906 35.0537 22.8369 36 24 36C24.9166 36 25.6982 35.4121 25.9884 34.5938H28.2188C30.1573 34.5938 31.7344 33.0166 31.7344 31.0781V30.375H32.4375C33.6006 30.375 34.5469 29.4287 34.5469 28.2656C34.5469 28.1782 34.5469 23.1908 34.5469 22.5469C34.5469 16.7313 29.8155 12 24 12ZM17.6719 23.9531C17.6719 23.5654 17.9873 23.25 18.375 23.25C18.7627 23.25 19.0781 23.5654 19.0781 23.9531V29.6719C19.0781 30.0596 18.7627 30.375 18.375 30.375C17.9873 30.375 17.6719 30.0596 17.6719 29.6719V23.9531ZM15.5625 24.6562H16.2656V28.9688H15.5625C15.1748 28.9688 14.8594 28.6533 14.8594 28.2656V25.3594C14.8594 24.9717 15.1748 24.6562 15.5625 24.6562ZM24 34.5938C23.6123 34.5938 23.2969 34.2783 23.2969 33.8906C23.2969 33.5029 23.6123 33.1875 24 33.1875C24.3877 33.1875 24.7031 33.5029 24.7031 33.8906C24.7031 34.2783 24.3877 34.5938 24 34.5938ZM30.3281 29.6719C30.3281 30.0596 30.0127 30.375 29.625 30.375C29.2373 30.375 28.9219 30.0596 28.9219 29.6719V23.9531C28.9219 23.5654 29.2373 23.25 29.625 23.25C30.0127 23.25 30.3281 23.5654 30.3281 23.9531V29.6719ZM33.1406 28.2656C33.1406 28.6533 32.8252 28.9688 32.4375 28.9688H31.7344V24.6562H32.4375C32.8252 24.6562 33.1406 24.9717 33.1406 25.3594V28.2656Z" fill="#FFA155"/>
<path d="M20 18C22.1538 15.643 25.2308 15.3062 28 17.3265" stroke="#454DFD" stroke-width="1.5"/>
</svg>
