<svg width="47" height="47" viewBox="0 0 47 47" fill="none" xmlns="http://www.w3.org/2000/svg">
<circle opacity="0.5" cx="23.5" cy="23.5" r="23.5" fill="#FFE6D2"/>
<g clip-path="url(#clip0_1_2089)">
<path d="M33.7289 26.6041C33.7289 26.6041 33.7289 26.6041 33.7289 26.6041L33.2056 26.302C31.4749 25.3028 31.4705 22.6999 33.2056 21.6981L33.729 21.396C34.4005 21.0082 34.6314 20.1465 34.2437 19.475L32.5406 16.5251C32.1529 15.8536 31.2912 15.6229 30.6196 16.0104L30.0986 16.3112C28.3796 17.3035 26.1093 16.0278 26.1093 14.0131V13.4062C26.1093 12.6308 25.4784 12 24.703 12H21.2968C20.5213 12 19.8905 12.6308 19.8905 13.4062V14.013C19.8905 16.0283 17.6197 17.3032 15.9012 16.3111L15.3801 16.0103C14.7071 15.6216 13.8479 15.8519 13.4592 16.525L11.7561 19.4749C11.3684 20.1464 11.5992 21.0081 12.2708 21.3959L12.7941 21.698C14.5247 22.6972 14.5292 25.3001 12.7941 26.3019L12.2707 26.604C11.5992 26.9917 11.3683 27.8535 11.756 28.5249L13.4591 31.4749C13.8468 32.1464 14.7085 32.3774 15.3801 31.9896L15.9011 31.6887C17.6209 30.696 19.8904 31.9747 19.8904 33.9869V34.5938C19.8904 35.3692 20.5213 36 21.2967 36H24.7029C25.4783 36 26.1092 35.3692 26.1092 34.5938V33.987C26.1092 31.9719 28.3798 30.6967 30.0985 31.6889L30.6196 31.9897C31.2911 32.3774 32.1528 32.1465 32.5405 31.475L34.2436 28.5251C34.6323 27.852 34.4021 26.9927 33.7289 26.6041ZM31.3227 30.7718L30.8016 30.471C28.15 28.9401 24.7029 30.8845 24.7029 33.987V34.5938H21.2967V33.987C21.2967 30.8807 17.8461 28.942 15.198 30.471L14.6769 30.7718L12.9738 27.8219L13.4971 27.5198C14.7358 26.8046 15.5031 25.4627 15.4999 24.0169V24V23.9823C15.5032 22.5374 14.7358 21.1954 13.4971 20.4803L12.9738 20.1781L14.6769 17.2282L15.198 17.529C17.8495 19.06 21.2967 17.1155 21.2967 14.013V13.4062H24.7029V14.013C24.7029 17.0867 28.1252 19.0741 30.8016 17.529L31.3227 17.2282L33.0258 20.1781L32.5025 20.4802C29.8303 22.023 29.8341 25.9792 32.5025 27.5198L33.0258 27.8219L31.3227 30.7718Z" fill="#FFA155"/>
<path d="M23 17.9708C19.6754 17.9708 16.9707 20.6755 16.9707 24C16.9707 27.3246 19.6754 30.0293 23 30.0293C26.3246 30.0293 29.0292 27.3246 29.0292 24C29.0292 20.6755 26.3246 17.9708 23 17.9708ZM23 28.623C20.4508 28.623 18.377 26.5492 18.377 24C18.377 21.4509 20.4508 19.377 23 19.377C25.5492 19.377 27.623 21.4509 27.623 24C27.623 26.5492 25.5492 28.623 23 28.623Z" fill="#444CFC"/>
<path d="M24.6241 22.3651L22.2433 24.1322L21.4693 23.3076C21.2035 23.0244 20.7585 23.0102 20.4754 23.276C20.1922 23.5418 20.1781 23.9867 20.4439 24.2699L21.6466 25.5514C21.8911 25.812 22.2919 25.8475 22.5783 25.6348L25.4621 23.4943C25.7739 23.2629 25.8391 22.8225 25.6076 22.5106C25.3763 22.1989 24.9359 22.1338 24.6241 22.3651Z" fill="#444CFC"/>
</g>
<defs>
<clipPath id="clip0_1_2089">
<rect width="24" height="24" fill="white" transform="translate(11 12)"/>
</clipPath>
</defs>
</svg>
