<svg width="144" height="17" viewBox="0 0 144 17" fill="none" xmlns="http://www.w3.org/2000/svg">
<g clip-path="url(#clip0_9798_232)">
<path d="M16 8.52246C16 4.10418 12.4183 0.522461 8 0.522461C3.58172 0.522461 0 4.10418 0 8.52246C0 12.5154 2.92547 15.8251 6.75 16.4253V10.835H4.71875V8.52246H6.75V6.75996C6.75 4.75496 7.94438 3.64746 9.77172 3.64746C10.6467 3.64746 11.5625 3.80371 11.5625 3.80371V5.77246H10.5538C9.56 5.77246 9.25 6.38918 9.25 7.02246V8.52246H11.4688L11.1141 10.835H9.25V16.4253C13.0745 15.8251 16 12.5154 16 8.52246Z" fill="#232536"/>
</g>
<g clip-path="url(#clip1_9798_232)">
<path d="M47.6999 15.0225C53.7362 15.0225 57.0387 10.0204 57.0387 5.68379C57.0387 5.54317 57.0356 5.39942 57.0293 5.25879C57.6718 4.79419 58.2262 4.21872 58.6665 3.55942C58.0682 3.82562 57.4329 3.99947 56.7824 4.07504C57.4674 3.66449 57.9802 3.01953 58.2259 2.25973C57.5815 2.64159 56.8769 2.91096 56.1421 3.05629C55.6471 2.53026 54.9925 2.18196 54.2796 2.06525C53.5668 1.94854 52.8353 2.06992 52.1983 2.41062C51.5614 2.75131 51.0544 3.29236 50.7557 3.95009C50.4571 4.60783 50.3835 5.34563 50.5462 6.04942C49.2415 5.98395 47.9651 5.64502 46.7998 5.05462C45.6345 4.46421 44.6063 3.63551 43.7818 2.62223C43.3628 3.34471 43.2345 4.19965 43.4232 5.01328C43.6118 5.82691 44.1032 6.53818 44.7974 7.00254C44.2763 6.986 43.7665 6.84567 43.3103 6.59317V6.63379C43.3098 7.39199 43.5719 8.12694 44.052 8.71373C44.5322 9.30052 45.2007 9.70293 45.944 9.85254C45.4612 9.98464 44.9545 10.0039 44.4631 9.90879C44.6728 10.5608 45.0809 11.1311 45.6304 11.5401C46.1798 11.9491 46.8433 12.1763 47.5281 12.19C46.3655 13.1033 44.9293 13.5986 43.4509 13.5963C43.1887 13.5959 42.9268 13.5798 42.6665 13.5482C44.1684 14.5117 45.9155 15.0235 47.6999 15.0225Z" fill="#232536"/>
</g>
<g clip-path="url(#clip2_9798_232)">
<path d="M93.3335 1.96309C95.471 1.96309 95.7241 1.97246 96.5647 2.00996C97.346 2.04434 97.7679 2.17559 98.0491 2.28496C98.421 2.42871 98.6897 2.60371 98.9679 2.88184C99.2491 3.16309 99.421 3.42871 99.5647 3.80059C99.6741 4.08184 99.8054 4.50684 99.8397 5.28496C99.8772 6.12871 99.8866 6.38184 99.8866 8.51621C99.8866 10.6537 99.8772 10.9068 99.8397 11.7475C99.8054 12.5287 99.6741 12.9506 99.5647 13.2318C99.421 13.6037 99.246 13.8725 98.9679 14.1506C98.6866 14.4318 98.421 14.6037 98.0491 14.7475C97.7679 14.8568 97.3429 14.9881 96.5647 15.0225C95.721 15.06 95.4679 15.0693 93.3335 15.0693C91.196 15.0693 90.9429 15.06 90.1022 15.0225C89.321 14.9881 88.8991 14.8568 88.6179 14.7475C88.246 14.6037 87.9772 14.4287 87.6991 14.1506C87.4179 13.8693 87.246 13.6037 87.1022 13.2318C86.9929 12.9506 86.8616 12.5256 86.8272 11.7475C86.7897 10.9037 86.7804 10.6506 86.7804 8.51621C86.7804 6.37871 86.7897 6.12559 86.8272 5.28496C86.8616 4.50371 86.9929 4.08184 87.1022 3.80059C87.246 3.42871 87.421 3.15996 87.6991 2.88184C87.9804 2.60059 88.246 2.42871 88.6179 2.28496C88.8991 2.17559 89.3241 2.04434 90.1022 2.00996C90.9429 1.97246 91.196 1.96309 93.3335 1.96309ZM93.3335 0.522461C91.1616 0.522461 90.8897 0.531836 90.0366 0.569336C89.1866 0.606836 88.6022 0.744336 88.096 0.941211C87.5679 1.14746 87.121 1.41934 86.6772 1.86621C86.2304 2.30996 85.9585 2.75684 85.7522 3.28184C85.5554 3.79121 85.4179 4.37246 85.3804 5.22246C85.3429 6.07871 85.3335 6.35059 85.3335 8.52246C85.3335 10.6943 85.3429 10.9662 85.3804 11.8193C85.4179 12.6693 85.5554 13.2537 85.7522 13.76C85.9585 14.2881 86.2304 14.735 86.6772 15.1787C87.121 15.6225 87.5679 15.8975 88.0929 16.1006C88.6022 16.2975 89.1835 16.435 90.0335 16.4725C90.8866 16.51 91.1585 16.5193 93.3304 16.5193C95.5022 16.5193 95.7741 16.51 96.6272 16.4725C97.4772 16.435 98.0616 16.2975 98.5679 16.1006C99.0929 15.8975 99.5397 15.6225 99.9835 15.1787C100.427 14.735 100.702 14.2881 100.905 13.7631C101.102 13.2537 101.24 12.6725 101.277 11.8225C101.315 10.9693 101.324 10.6975 101.324 8.52559C101.324 6.35371 101.315 6.08184 101.277 5.22871C101.24 4.37871 101.102 3.79434 100.905 3.28809C100.708 2.75684 100.437 2.30996 99.9897 1.86621C99.546 1.42246 99.0991 1.14746 98.5741 0.944336C98.0647 0.747461 97.4835 0.609961 96.6335 0.572461C95.7772 0.531836 95.5054 0.522461 93.3335 0.522461Z" fill="#232536"/>
<path d="M93.3335 4.41309C91.0647 4.41309 89.2241 6.25371 89.2241 8.52246C89.2241 10.7912 91.0647 12.6318 93.3335 12.6318C95.6022 12.6318 97.4429 10.7912 97.4429 8.52246C97.4429 6.25371 95.6022 4.41309 93.3335 4.41309ZM93.3335 11.1881C91.8616 11.1881 90.6679 9.99434 90.6679 8.52246C90.6679 7.05059 91.8616 5.85684 93.3335 5.85684C94.8054 5.85684 95.9991 7.05059 95.9991 8.52246C95.9991 9.99434 94.8054 11.1881 93.3335 11.1881Z" fill="#232536"/>
<path d="M98.5647 4.25056C98.5647 4.78181 98.1335 5.20994 97.6054 5.20994C97.0741 5.20994 96.646 4.77868 96.646 4.25056C96.646 3.71931 97.0772 3.29118 97.6054 3.29118C98.1335 3.29118 98.5647 3.72243 98.5647 4.25056Z" fill="#232536"/>
</g>
<g clip-path="url(#clip3_9798_232)">
<path d="M142.816 0.522461H129.181C128.528 0.522461 128 1.03809 128 1.67559V15.3662C128 16.0037 128.528 16.5225 129.181 16.5225H142.816C143.469 16.5225 144 16.0037 144 15.3693V1.67559C144 1.03809 143.469 0.522461 142.816 0.522461ZM132.747 14.1568H130.372V6.51934H132.747V14.1568ZM131.559 5.47871C130.797 5.47871 130.181 4.86309 130.181 4.10371C130.181 3.34434 130.797 2.72871 131.559 2.72871C132.319 2.72871 132.934 3.34434 132.934 4.10371C132.934 4.85996 132.319 5.47871 131.559 5.47871ZM141.634 14.1568H139.262V10.4443C139.262 9.55996 139.247 8.41934 138.028 8.41934C136.794 8.41934 136.606 9.38496 136.606 10.3818V14.1568H134.238V6.51934H136.512V7.56309H136.544C136.859 6.96309 137.634 6.32871 138.788 6.32871C141.191 6.32871 141.634 7.90996 141.634 9.96621V14.1568Z" fill="#232536"/>
</g>
<defs>
<clipPath id="clip0_9798_232">
<rect width="16" height="16" fill="white" transform="translate(0 0.522461)"/>
</clipPath>
<clipPath id="clip1_9798_232">
<rect width="16" height="16" fill="white" transform="translate(42.6665 0.522461)"/>
</clipPath>
<clipPath id="clip2_9798_232">
<rect width="16" height="16" fill="white" transform="translate(85.3335 0.522461)"/>
</clipPath>
<clipPath id="clip3_9798_232">
<rect width="16" height="16" fill="white" transform="translate(128 0.522461)"/>
</clipPath>
</defs>
</svg>
