<svg width="47" height="47" viewBox="0 0 47 47" fill="none" xmlns="http://www.w3.org/2000/svg">
<circle opacity="0.5" cx="23.5" cy="23.5" r="23.5" fill="#FFE6D2"/>
<path fill-rule="evenodd" clip-rule="evenodd" d="M17.9635 17.9956H16.9965C16.9754 17.9956 16.956 18.0152 16.956 18.036V20.7357C16.956 20.7566 16.9754 20.7759 16.9965 20.7759H17.9635V17.9956ZM29.326 16.7868H30.2929C30.9812 16.7868 31.542 17.3477 31.542 18.036V20.7356C31.542 21.4238 30.9812 21.9846 30.2929 21.9846H28.6224C28.1247 22.7756 27.422 23.4666 26.6666 24.0111C26.6666 24.9805 27.369 25.7721 28.3589 25.7721C31.2501 25.7721 33.597 26.5344 33.597 30.0431C33.597 30.3769 33.3264 30.6475 32.9925 30.6475C32.6589 30.6475 32.3881 30.3769 32.3881 30.0431C32.3881 27.2287 30.5224 26.9808 28.3589 26.9808C27.8791 26.9808 27.4261 26.8634 27.0269 26.656L23.7987 28.9935C23.5925 29.1495 23.3007 29.1604 23.0804 29.0007L20.0054 26.774C19.6729 26.9074 19.31 26.9808 18.9304 26.9808C16.7671 26.9808 14.9013 27.2287 14.9013 30.0431C14.9013 30.3769 14.6306 30.6475 14.2969 30.6475C13.9632 30.6475 13.6924 30.3769 13.6924 30.0431C13.6924 26.5344 16.0394 25.7721 18.9304 25.7721C19.8194 25.7721 20.5533 25.0787 20.6181 24.2055C19.7563 23.6396 18.9508 22.8803 18.432 21.9846H16.9965C16.3082 21.9846 15.7474 21.4238 15.7474 20.7356V18.036C15.7474 17.3477 16.3082 16.7868 16.9965 16.7868H17.9635V15.9245C17.9635 13.0185 20.3108 10.6221 23.2105 10.6221H24.0789C26.9784 10.6221 29.326 13.0188 29.326 15.9247V16.7868ZM28.1172 20.7764V16.8584C26.4766 17.0694 24.8272 16.6059 23.5414 15.5748C22.3473 16.5295 20.7974 17.0361 19.1724 16.8813V20.7C19.435 21.5392 20.0726 22.2797 20.8073 22.8567C21.8091 23.6435 22.9471 24.1083 23.5704 24.1083C24.2023 24.1083 25.4824 23.5195 26.5562 22.5583C26.7568 22.379 26.9481 22.1871 27.1246 21.9849H25.2563C25.0727 22.2294 24.7801 22.3877 24.4505 22.3877C23.8941 22.3877 23.4433 21.9366 23.4433 21.3805C23.4433 20.824 23.8941 20.373 24.4505 20.373C24.7801 20.373 25.0727 20.5313 25.2563 20.776C26.0581 20.7759 27.3942 20.7764 28.1172 20.7764ZM30.2929 17.9956H29.326V20.7759H30.2929C30.3139 20.7759 30.3333 20.7566 30.3333 20.7356V18.036C30.3333 18.0152 30.3139 17.9956 30.2929 17.9956ZM28.1074 15.6418C28.0019 14.0874 27.0325 12.7578 25.6731 12.1632C25.458 13.1316 25.0158 14.0013 24.4116 14.7236C25.4648 15.5149 26.7968 15.8493 28.1074 15.6418ZM24.5059 11.8538C24.3656 11.8388 24.2232 11.831 24.0789 11.831H23.2105C21.0551 11.831 19.3106 13.5438 19.1802 15.6696C21.6798 15.9603 23.9878 14.291 24.5059 11.8538ZM21.0597 26.0473L23.4346 27.7669L26.0696 25.8589C25.8102 25.5256 25.6216 25.1347 25.5268 24.709C24.7638 25.0994 24.0476 25.3168 23.5704 25.3168C23.0989 25.3168 22.4375 25.142 21.7349 24.8226C21.6117 25.2861 21.3763 25.7049 21.0597 26.0473Z" fill="#FFA155"/>
<path d="M14.6255 32.5214C19.0369 36.004 25.0735 38.3258 32.7355 32.5214" stroke="#444CFC" stroke-width="1.5" stroke-linecap="round"/>
</svg>
